<svg xmlns="http://www.w3.org/2000/svg" style="display:none">
  <symbol id="i-check" viewBox="0 0 24 24" fill="none" stroke="currentColor" stroke-width="2" stroke-linecap="round" stroke-linejoin="round">
    <polyline points="20 6 9 17 4 12"/>
  </symbol>
  <symbol id="i-quality" viewBox="0 0 24 24" fill="none" stroke="currentColor" stroke-width="2" stroke-linecap="round" stroke-linejoin="round">
    <path d="M12 2l3 6 6 .9-4.5 4.4 1 6-5.5-3-5.5 3 1-6L3 8.9 9 8z"/>
  </symbol>
  <symbol id="i-clock" viewBox="0 0 24 24" fill="none" stroke="currentColor" stroke-width="2" stroke-linecap="round" stroke-linejoin="round">
    <circle cx="12" cy="12" r="10"/><polyline points="12 6 12 12 16 14"/>
  </symbol>
  <symbol id="i-shield" viewBox="0 0 24 24" fill="none" stroke="currentColor" stroke-width="2" stroke-linecap="round" stroke-linejoin="round">
    <path d="M12 22s8-4 8-10V5l-8-3-8 3v7c0 6 8 10 8 10z"/>
  </symbol>
  <symbol id="i-phone" viewBox="0 0 24 24" fill="none" stroke="currentColor" stroke-width="2" stroke-linecap="round" stroke-linejoin="round">
    <path d="M22 16.92v3a2 2 0 0 1-2.18 2 19.8 19.8 0 0 1-8.63-3.07 19.5 19.5 0 0 1-6-6A19.8 19.8 0 0 1 2.08 4.18 2 2 0 0 1 4.06 2h3a2 2 0 0 1 2 1.72c.12.9.32 1.77.59 2.61a2 2 0 0 1-.45 2.11L8.09 9.91a16 16 0 0 0 6 6l1.47-1.11a2 2 0 0 1 2.11-.45c.84.27 1.71.47 2.61.59A2 2 0 0 1 22 16.92z"/>
  </symbol>
  <symbol id="i-mail" viewBox="0 0 24 24" fill="none" stroke="currentColor" stroke-width="2" stroke-linecap="round" stroke-linejoin="round">
    <path d="M4 4h16v16H4z"/><path d="M22 6l-10 7L2 6"/>
  </symbol>
  <symbol id="i-map" viewBox="0 0 24 24" fill="none" stroke="currentColor" stroke-width="2" stroke-linecap="round" stroke-linejoin="round">
    <path d="M21 10c0 6-9 12-9 12S3 16 3 10a9 9 0 1 1 18 0z"/><circle cx="12" cy="10" r="3"/>
  </symbol>
  <symbol id="i-instagram" viewBox="0 0 24 24" fill="none" stroke="currentColor" stroke-width="2" stroke-linecap="round" stroke-linejoin="round">
    <rect x="2" y="2" width="20" height="20" rx="5" ry="5"/><path d="M16 11.37A4 4 0 1 1 12.63 8 4 4 0 0 1 16 11.37z"/><line x1="17.5" y1="6.5" x2="17.5" y2="6.5"/>
  </symbol>
  <symbol id="i-facebook" viewBox="0 0 24 24" fill="currentColor">
    <path d="M22 12a10 10 0 1 0-11.6 9.9v-7h-2.7V12h2.7V9.7c0-2.7 1.6-4.2 4-4.2 1.2 0 2.5.2 2.5.2v2.7h-1.4c-1.4 0-1.8.9-1.8 1.8V12h3l-.5 2.9h-2.5v7A10 10 0 0 0 22 12z"/>
  </symbol>
  <symbol id="i-twitter" viewBox="0 0 24 24" fill="currentColor">
    <path d="M22.46 6c-.77.35-1.6.58-2.46.69a4.3 4.3 0 0 0 1.88-2.38 8.63 8.63 0 0 1-2.73 1.04 4.28 4.28 0 0 0-7.29 3.9 12.14 12.14 0 0 1-8.81-4.47 4.28 4.28 0 0 0 1.33 5.72 4.27 4.27 0 0 1-1.94-.54v.05a4.28 4.28 0 0 0 3.43 4.2 4.3 4.3 0 0 1-1.93.07 4.28 4.28 0 0 0 4 2.97A8.6 8.6 0 0 1 2 19.54a12.13 12.13 0 0 0 6.56 1.92c7.88 0 12.2-6.53 12.2-12.2 0-.19 0-.38-.01-.57A8.7 8.7 0 0 0 22.46 6z"/>
  </symbol>
</svg>
